<svg width="33" height="37" viewBox="0 0 33 37" fill="none" xmlns="http://www.w3.org/2000/svg">
<g clip-path="url(#clip0_517_664)">
<path d="M0.198 0H17.622L17.688 0.362035L16.896 0.217221V0.362035L17.754 0.434442L17.952 0.579256L18.15 0.144814H18.612V0.289628L19.47 0.362035L20.658 0.651663V0.796477L21.186 0.868885L22.044 1.15851V1.30333L22.44 1.37573L22.572 1.44814L22.506 1.88258H22.704V2.24462L23.034 2.0998V2.31703L23.628 2.24462V1.95499L24.024 2.17221V2.31703L24.354 2.38943L25.014 2.75147L25.74 3.25832V3.40313L26.07 3.54795L26.334 3.76517V3.90998L26.598 3.98239L27.324 4.63405L27.654 4.99609L27.984 5.35812L28.446 5.79256L28.776 6.22701L29.04 6.44423L29.238 6.80626L29.766 7.45793L30.03 7.89237V8.03718H30.162V8.2544L30.36 8.32681L30.624 8.83366V9.05088H30.822L30.954 9.34051V9.63014H31.086V9.84736H31.218L31.416 10.4266V10.6438L31.548 10.7162L31.746 11.1507L32.01 11.8748L32.34 12.816L32.604 14.1194L32.736 14.3366L32.868 15.3503V15.7847L32.934 15.8571L33 16.4364V17.1605H32.868V17.4501L32.538 17.3053L32.406 17.4501L31.944 17.3777V17.2329L31.746 17.1605V16.8708L31.482 16.9432V16.726H31.35L31.218 16.002L30.822 16.2916H30.426V15.8571H30.624L30.69 15.5675L30.822 14.9883V13.9022L30.756 14.1918H30.624V14.409H30.492L30.36 14.771L29.964 15.2779L29.634 15.6399L29.436 15.9296L29.37 16.1468L29.04 16.2916L28.71 16.6536L28.38 17.1605L28.248 17.2329L28.182 17.5225H28.05L27.984 17.8121L27.918 18.1018H27.786L27.72 18.6086V19.4775L27.786 20.1292H27.918L28.182 20.8532L28.578 21.6497L28.776 22.0117V22.1566L28.974 22.229L29.37 22.8806V23.0254H29.238V23.1703L28.974 23.0254L28.842 22.953V22.6634H28.71V22.8806L28.38 22.7358V23.0254H28.842L28.908 23.3151L28.71 23.4599L28.314 23.3875V23.2427H28.182L27.852 22.8082L27.588 22.5186V22.3014H27.456L27.324 21.8669L27.192 21.7945L27.126 22.229L27.192 22.3014V23.1703L26.994 23.4599H26.598V23.3151H26.466L26.4 23.0978L26.07 23.1703V23.3875H26.466V23.6047H26.862V24.0391L26.598 24.8356L26.4 25.3425H26.532L26.664 25.8493L26.862 25.9941V26.1389H27.126V25.9941L27.39 25.8493V25.4149L27.324 25.3425V24.908H27.456L27.258 24.6184V24.4736L26.994 24.546L27.192 24.184L27.324 24.1115H27.984L28.446 24.4012L28.71 24.9804V25.9941L28.446 26.6458L27.984 27.1526L27.786 27.6595H28.116L28.182 27.4423L28.512 27.1526L28.644 26.863H28.776L28.842 26.501L29.04 25.7769L28.974 24.7632L28.71 23.8219L28.842 23.7495V23.5323L29.304 23.6047V23.8219H29.568L29.634 24.0391L29.568 24.1115L29.898 24.2564L29.964 24.8356V25.9217H29.766L29.634 25.3425V25.1977L29.436 25.4149L29.37 25.7045L29.568 25.7769V26.1389H29.7L29.832 26.5734H29.7L29.634 26.9354L29.436 27.5147L29.304 27.5871V27.7319L29.436 27.6595L29.568 27.3699H29.7L29.832 26.863L30.03 26.5734L30.36 25.4149L30.426 24.6908L30.228 23.6771L29.832 22.8082L29.7 22.7358L29.568 22.3738V21.4325L29.766 21.2153L30.03 21.0704H30.558L30.492 21.5773L30.36 21.7945L30.426 22.0841L30.822 22.1566L31.152 22.0117L31.218 21.4325H31.812L31.68 21.2153V20.636L31.878 20.2016V20.0568H32.67L32.934 20.1292L33 21.1429L32.736 23.1703L32.67 23.4599H32.538L32.472 24.184L32.208 25.2701H32.076L32.01 25.7769L31.746 26.4286L31.482 26.2838V26.0665H31.218L31.152 26.2838H31.02L31.086 26.6458H30.822V26.7906H30.69V26.9354L31.086 26.7906L31.152 27.0078L30.822 27.0802L30.954 27.1526L31.02 27.5871L31.152 27.8043L30.756 28.6732H30.492L30.162 28.5284H30.03L29.964 28.818L29.832 28.8904H29.964V29.1076L29.832 29.2524L30.03 29.3249L29.898 29.4697L30.096 29.6145L29.964 29.9765L29.832 30.2661H29.7L29.634 30.6282L29.502 30.7006L29.37 30.9902L29.238 31.0626L29.172 31.2798H29.04L28.908 31.5695L28.71 31.7867L28.38 32.2211L28.05 32.5832L27.72 32.8728L27.456 33.2348L26.994 33.6693L26.664 33.8865L26.532 34.1037H26.334V34.2485L25.476 34.8278L25.146 35.1174L24.684 35.3346L24.156 35.6967L23.43 35.9863H23.298V36.1311L22.11 36.4931H21.912V36.638L20.856 36.8552H20.526L20.328 36.4931L20.13 36.4207V36.2759H20.262L20.196 36.1311L19.932 36.2035L19.866 35.8415H19.47L19.338 35.7691V35.6243L19.47 35.4795H19.668L19.602 35.1174L20.526 34.9002H20.922V34.7554L22.242 34.3933H22.374V34.2485L23.562 33.8141H23.892V33.9589L24.288 33.8141L24.552 33.6693V33.5245H24.75V33.3072L24.552 33.1624L25.08 32.8728L25.344 32.5832L25.806 32.2935L26.466 31.6419L26.598 31.3523L26.862 31.2798H26.598H26.4V31.4247L25.674 31.6419H25.146L24.882 31.4971L24.684 31.2798L24.552 30.773V29.8317L24.75 29.18L25.278 28.818H26.136L26.268 28.9628V29.6869L26.136 29.9041L25.806 30.0489L25.872 30.2661H26.334L26.268 30.5558L26.598 30.3386L26.994 30.411V30.5558L27.324 30.4834V30.6282H27.192V30.773H27.06V31.0626H27.192V30.9178H27.324V30.773L27.588 30.7006L27.456 30.6282L27.522 30.411L27.786 30.4834L27.654 30.1937H27.522L27.456 30.3386H27.324V30.1937H27.192L27.258 29.9041L27.522 29.7593H27.786V29.6145L27.39 29.6869L27.192 29.5421L27.126 29.6869L26.994 29.7593L26.928 29.9041H26.796L26.862 29.2524H26.994V28.6008H27.258L27.39 28.2387H27.06L27.126 27.9491H26.994V27.4423L26.73 27.5871L26.664 27.4423L26.334 27.5871L26.202 27.6595H25.806V27.8043L25.146 28.0939L24.948 28.1663L24.882 28.3836L24.618 28.6008H24.486L24.354 28.9628L23.958 29.6145L23.892 29.9041V30.773L24.024 31.2798V32.2211L23.43 32.5108L23.232 32.8728L23.034 33.3796H22.704V32.8004L22.968 32.5108H23.1L23.166 31.7867L23.1 31.4971H22.968L22.836 31.2798L22.506 31.6419L22.308 32.0763H22.176L22.11 33.5969L21.582 34.1037L20.988 34.3933H20.724V34.5382L20.064 34.683L18.612 34.7554L18.15 34.9002V35.045L17.754 35.1174L17.688 35.4795L17.622 35.6243H17.754V35.4795H19.338V35.5519L18.612 35.6243V35.9139H18.348L18.414 36.0587L18.81 35.9863V35.8415L19.14 35.9139L19.602 35.9863L19.536 36.3483L19.668 36.1311H19.8L19.734 36.638L19.338 36.5656L19.272 36.7104H18.744L18.414 36.7828L18.282 36.7104V36.8552L19.338 36.7828L19.14 36.9276L19.008 37H0.198L0 36.8552V35.8415L0.396 35.3346L0.726 35.045L1.452 34.5382L1.782 33.9589H1.914L2.046 33.2348L2.178 32.8004L2.244 4.1272L2.112 4.05479V3.69276L2.178 3.90998H2.508V3.47554L2.376 3.40313L2.508 3.33072V3.1135L2.31 3.18591L2.112 2.53425L2.046 2.46184H1.584L1.254 2.0998L0.528 1.52055L0.264 1.44814L0 0.941292V0.217221L0.198 0ZM7.458 1.08611V1.30333L7.062 1.23092L7.194 1.30333L7.26 1.59295L7.458 1.52055L7.392 1.44814H7.788V1.66536L7.524 1.59295L7.458 2.17221L7.524 2.31703H7.392V2.0274H7.194L7.326 2.38943L7.194 2.67906H7.392L7.458 2.82387L7.59 2.75147L7.656 2.82387L7.524 3.25832L7.986 3.40313V3.69276H7.788V3.90998L7.59 3.98239L7.92 4.1272L8.052 4.27202V3.40313H8.184L8.118 14.771L7.524 14.6986V14.9159V15.3503L7.722 15.2779L7.59 15.4951V15.7847H7.722V15.9296H7.59L7.524 16.0744V16.5812L7.326 16.6536V16.8708L7.392 17.0881H7.59L7.524 17.2329L6.798 17.3053V17.4501L6.666 17.3777L6.6 17.0881L6.336 17.1605L6.402 17.6673H6.6L6.666 17.8121H6.996L7.062 17.9569L6.666 17.8845V18.0294H6.798L6.864 18.319H7.194V18.681H7.062L6.864 19.4051H6.732V19.6223H6.6L6.27 20.2016L5.94 20.5636L5.478 21.1429L5.148 21.4325L4.818 21.8669L4.488 22.229L4.224 22.5186V22.8082H4.092L3.894 23.2427V23.3875H3.762L3.564 23.9667V24.2564H3.366V24.4012H3.168L3.102 24.546H2.97L3.036 24.184L2.838 24.2564L2.64 24.184L2.574 23.3875V18.3914L2.706 18.319H2.508L2.574 16.5812V14.9883L2.508 10.5714L2.838 10.499V10.3542L2.376 10.2818L2.31 33.3796L2.508 33.3072L2.574 33.0176V28.0939L2.508 25.5597H2.64V25.4149H2.508L2.574 24.546L2.64 24.3288H2.772L2.838 24.6184L3.3 24.6908L3.168 25.9941L3.3 26.3562L3.564 26.2113L3.696 25.4873L3.828 25.0528L4.026 24.4012L4.29 23.8943L4.686 23.2427V23.0978L5.082 23.0254H5.544V22.8806H5.346V22.6634L5.61 22.5186L5.94 22.1566L6.006 21.9393H5.874L5.94 21.6497L6.27 21.2877L6.534 20.9256V20.7808L6.798 20.636L6.93 20.4188V20.2016L7.194 20.1292L7.26 20.0568V20.4912L7.458 20.4188L7.59 20.3464V20.0568L8.118 20.1292L8.052 19.9843H7.788V19.8395H7.656L7.59 19.5499V19.4051L7.788 18.4638V17.8845H8.052V16.4364H8.382L8.316 16.002V15.1331L8.58 14.9883L8.646 14.9159L8.712 14.1918L8.976 14.047L9.042 13.5401L9.24 13.3229L9.372 12.3816L9.438 12.1644L9.636 12.2368V12.5988L9.702 12.454H9.9L9.966 12.7436L10.296 12.5264L10.362 13.0333L10.494 13.3953H10.23V13.5401H10.098V13.7573H10.428L10.494 14.1194L10.89 14.2642V14.1194L11.022 14.1918L11.088 14.9883L11.352 15.2055L11.418 15.7847V16.5088H11.88V17.0157H11.748L11.616 17.2329H11.286V17.4501L11.088 17.3053H10.692L10.824 17.5949H11.154L11.418 17.6673L11.352 17.3777H11.484V17.5225H11.616L11.682 17.8121H11.88L11.946 17.4501H12.474L12.738 17.1605V16.9432L13.266 16.8708V14.8434L13.332 14.6986L14.058 14.6262V14.771L14.19 14.6986L14.256 14.1194L14.586 14.047L14.718 13.9746V14.3366L15.048 14.1918L15.312 14.047H16.368L16.698 14.1194V14.2642L16.896 14.409H17.094L17.16 13.7573L17.094 13.6849L15.378 13.6125L14.784 13.5401L14.718 13.3953H14.586V13.2505L14.19 13.3229V13.1057H14.058V12.9609H13.926L13.86 12.5988V11.5127L13.992 11.0783L14.19 11.0059L14.256 10.2094L14.52 9.91977L14.586 9.2681L14.916 9.05088L14.85 8.61644L15.048 8.68885L15.18 8.83366V8.68885L15.51 8.61644L15.642 8.10959L16.038 7.96478L15.906 7.89237L15.642 7.96478L15.51 7.67515L15.312 7.81996V7.31311H15.51V7.60274H15.642L15.84 7.2407L16.104 7.02348L15.906 6.95108L16.104 6.73386L16.302 6.66145L16.434 7.31311L16.5 8.32681L16.83 8.54403L16.962 9.12329L17.358 9.2681L17.226 10.0646L17.16 9.91977H16.962L16.896 10.137L17.226 10.3542L17.16 10.499H17.358L17.556 11.0059H17.754L17.622 11.3679L17.49 11.4403L17.358 11.2955L17.292 11.5851L17.028 11.5127V11.7299L16.632 11.5127L16.566 11.1507L16.236 11.0783L16.038 11.1507V11.2955H16.434L16.5 11.6575H16.17V11.7299H14.916L14.586 11.6575L14.388 11.8023H14.52V12.3092H14.388L14.454 12.6712L14.652 12.816L15.114 12.8885V12.6712L15.312 12.5988H16.236L16.368 12.3092L16.764 12.454H17.028L17.094 12.0196L17.424 11.8748L17.358 11.7299H17.754L17.886 11.6575V11.5127H18.018V12.5264L17.886 12.5988V12.7436L18.084 12.816L18.216 12.7436L18.15 12.9609L17.952 13.0333V13.1781H17.424L17.226 13.3229V13.4677L17.556 13.7573L17.82 13.8297V13.6849L18.15 13.6125L18.348 13.4677L18.216 14.1918L17.952 14.6262L17.49 14.5538V14.9159L17.556 14.9883H17.952V15.1331H17.688V15.2779L18.15 15.2055V14.9159H18.546L18.612 14.9883V16.2192L18.546 17.0157L19.074 17.0881L19.338 17.2329V17.3777H19.866V17.2329H19.998L20.064 16.5812L20.394 16.4364L20.46 16.364L20.526 15.1331L20.79 15.0607L20.856 14.1918L21.12 13.9746V13.6125L21.45 13.4677L21.582 13.3953V13.6125L21.846 13.5401L21.912 13.1057H21.78L21.978 12.454V12.2368L22.11 12.3092V12.6712H22.506L22.638 13.3229L22.902 13.5401L23.034 14.047L23.232 14.1194L23.298 14.771V14.9883L23.562 15.2779H23.694L23.628 16.0744L23.562 16.4364L23.958 16.5088V16.9432L23.892 17.0881L23.628 17.2329L23.364 17.1605L23.166 17.3777H23.364L23.496 17.3053L23.562 17.5225L23.628 17.6673V18.3914H23.958V19.1879L23.826 19.1155L23.76 18.8982L23.958 18.8258L23.694 18.681L23.628 19.1879L23.43 19.3327V19.4775L23.298 19.5499L23.364 19.7671H23.562V19.4775L23.76 19.5499V19.3327H23.958L23.892 19.6947H23.628V19.9119L23.364 19.9843L23.76 20.1292V20.274L23.958 20.2016V20.0568H24.09L23.958 21.5049L24.354 21.7221L24.09 21.7945L24.024 22.0117H23.694V22.1566H23.958V22.591H24.09V22.953H24.486L24.156 23.8219L23.826 24.184L23.364 24.4736L23.1 24.546V24.6908L21.582 24.8356L21.45 24.908V24.7632L21.318 24.6908L21.186 24.4012H20.856L20.79 24.3288H20.46L20.592 24.0391L20.526 23.7495L20.196 23.8219V24.0391H20.328L20.196 24.2564V24.4736H19.998V24.6184L20.658 24.6908H19.998L19.668 24.7632V24.908L18.546 25.0528L18.414 25.1252L18.282 24.908L17.688 24.9804L17.49 25.0528L17.424 25.1977L17.16 25.3425L17.028 25.4873H16.896L16.83 25.8493L17.028 26.0665L16.632 27.0078L16.368 27.6595V27.8767L16.698 27.7319L16.83 27.5147L17.556 27.1526V27.0078L17.886 26.9354L18.612 26.6458V26.501L19.8 26.3562L21.846 26.2838L22.44 26.1389V25.9941L22.902 25.8493H23.166L23.232 26.1389H23.1L22.836 26.9354L22.374 27.6595L22.308 27.9491L22.11 28.0215L21.846 28.456L21.516 28.818L20.988 29.2524L20.658 29.6145L20.394 29.9765V30.1213L20.13 30.2661L19.998 30.773L19.8 30.8454L19.734 31.2798H19.602V31.4971L19.866 31.4247L20.394 31.0626V30.9178L20.724 30.8454L21.12 30.4834L21.45 30.1213L22.374 29.2524L22.506 28.9628L22.836 28.6008L23.1 28.2387V28.0215H23.232L23.298 27.7319H23.43L23.826 27.0078L24.09 26.6458L24.156 26.2113L24.288 26.1389L24.42 25.6321H24.552L24.948 24.4736L25.212 23.6771L25.41 23.0254L25.674 21.7221L25.806 20.636L25.872 19.6947L25.938 19.6223L26.004 17.6673L25.938 16.1468H25.806V15.2779L25.542 13.3953L25.476 13.0333L25.278 12.3816L25.014 11.2231V11.0059L25.146 10.9335L25.08 10.3542H24.948V10.0646L24.684 9.99217L24.552 10.0646V9.84736H24.42L24.354 9.48532L24.09 8.76125L23.694 8.182L23.562 7.89237L23.364 7.67515L23.298 7.53033H23.166L23.298 7.1683L23.364 7.02348L23.76 6.95108L23.562 6.87867L23.298 6.95108L23.166 6.58904L22.902 6.73386V6.58904H22.572V6.44423L22.242 6.22701L22.044 6.1546L21.912 5.86497L21.714 5.64775L21.516 5.57534L21.252 5.28571L20.988 5.06849H20.856V4.92368L20.13 4.56164H19.998V4.41683L19.074 4.05479H18.876V3.90998L18.084 3.69276H17.82V3.54795H17.688L17.754 3.33072L17.556 3.0411L17.094 2.96869L16.962 3.1135V3.25832H15.906L15.774 3.18591L8.448 3.1135L8.25 3.0411V3.18591H8.118L8.184 2.96869H7.854V2.67906L8.118 2.60665L8.25 2.53425V2.17221H8.118V1.95499L8.316 1.88258L8.118 1.73777H7.92V1.37573L7.59 1.30333V1.08611H7.458ZM22.506 2.46184V2.75147H22.638V2.89628L22.176 2.82387V3.18591L22.44 3.47554H22.902L22.968 3.33072H22.638V3.0411L22.836 2.96869V3.18591L23.034 3.1135V2.82387L22.836 2.75147V2.53425L22.506 2.46184ZM23.364 4.1272L23.694 4.48924L24.09 4.85127L24.486 5.57534H24.684L24.75 5.93738L25.08 6.80626L25.344 7.31311H25.476L25.542 6.87867L25.938 6.80626L26.136 7.02348V7.96478L26.07 8.32681H25.938V8.83366H26.07L26.136 9.34051L26.268 9.05088V8.83366H26.4L26.598 8.03718V7.1683L26.334 6.51663L25.938 5.93738H25.344L25.212 5.57534L25.146 5.21331L25.212 4.92368L24.948 4.77886V4.41683H24.486L24.156 4.34442H23.892L23.562 4.1272H23.364ZM2.442 4.41683L2.376 4.48924V10.2094H2.508L2.574 8.97847V4.85127L2.508 4.41683H2.442ZM27.786 7.53033L27.72 8.76125L27.456 9.55773L27.258 9.91977V10.2094H26.862L26.532 10.3542L26.466 10.6438L26.796 10.7162L26.862 10.9335L26.598 11.0059H26.73V11.6575L26.928 11.7299L26.796 11.8023L26.73 12.2368L26.334 12.3816L26.268 12.5264L26.334 12.6712H26.466V12.5264L26.796 12.454L26.862 12.6712L26.928 12.5264L27.126 12.5988L27.06 13.0333V13.1781H27.258V13.4677L27.588 13.3229L27.786 13.5401L28.116 13.6125L28.182 13.8297L28.908 13.9746L29.502 13.7573V13.6125L29.766 13.5401L30.162 13.0333V12.3092L29.832 11.4403L29.634 11.0783L29.7 10.4266L29.568 9.84736L29.7 9.77495L29.634 9.55773L29.04 9.70254V9.55773H29.238V9.41292H28.974L28.908 9.2681L28.71 9.19569L28.314 8.2544H28.182L28.05 7.89237L27.786 7.53033ZM14.982 10.5714L14.85 10.8611L15.048 11.0783L15.378 10.8611L16.236 10.7886L16.764 10.9335V10.5714H14.982ZM27.72 14.9883L27.522 15.3503L27.588 15.6399L27.654 15.7847H27.918L28.116 15.4227L28.05 15.0607L27.72 14.9883ZM15.576 15.9296L15.708 16.002L15.774 16.364L16.038 16.7984L16.368 17.0157L16.5 17.4501H16.632L16.566 17.6673L16.764 17.7397L16.83 17.3777L16.5 16.5812L16.368 16.5088L16.17 15.9296H15.576ZM9.702 16.1468L9.834 16.6536H9.966V16.2192L9.702 16.1468ZM22.176 16.1468L21.912 16.4364L21.978 16.7984L22.242 16.5812V16.1468H22.176ZM15.246 17.0157L15.048 17.2329V17.5225H14.916L14.85 18.0294L14.916 18.2466L14.652 18.319L14.586 18.3914L14.52 20.4912H14.322L14.256 20.1292H14.388L14.322 19.7671H13.926L13.794 20.0568L13.728 20.2016L13.464 20.3464L13.398 20.7084H13.2L13.134 21.0704L13.266 21.6497L12.804 21.4325H12.606V20.3464H12.342L12.276 20.4188L12.21 21.5773H12.342V21.7945H13.398L13.596 21.7221L13.662 21.5773L13.86 21.5049L13.926 20.4188L14.058 21.0704H14.256V21.2153L14.388 21.2877H14.784L14.85 21.6497L14.982 21.7945L15.246 21.7221V21.5049H15.378L15.576 21.2877L15.774 21.3601V21.1429L15.576 20.998L15.51 20.7808L15.84 20.998L15.906 20.7808H15.774L15.84 20.4912L15.972 20.3464L15.774 20.274L15.708 20.0568L15.906 19.9843L15.576 19.9119V20.2016H15.378L15.444 19.9843L15.18 19.9119L15.246 18.8982L15.312 18.6086L15.708 18.5362V18.681L15.576 18.8258L16.038 18.9706H16.302H16.434V19.6947L16.302 19.7671L16.698 19.6947L16.83 21.5049H17.028L17.094 21.3601L17.226 19.3327V18.2466L16.764 18.1742L16.698 18.1018H15.84L15.642 18.2466V17.9569L15.774 17.8121L15.906 17.5225L15.51 17.4501V17.7397L15.18 17.6673L15.114 17.5949L15.312 17.4501L15.444 17.0157H15.246ZM9.57 17.6673V17.8845H10.164L10.23 17.6673H9.57ZM21.78 17.6673L22.044 17.7397V17.8845H22.308V17.7397L22.506 17.6673H21.78ZM19.338 19.1155L19.14 19.3327L19.272 19.6947L19.338 19.8395L18.876 19.9119L18.81 20.1292L19.074 20.0568L19.866 19.7671L19.8 19.5499H19.536L19.404 19.3327L19.47 19.1155H19.338ZM18.414 19.8395L17.952 20.0568V20.2016H17.82L17.886 21.3601L18.018 21.5049H18.216V21.3601H18.348L18.414 20.4188L18.546 20.1292V19.8395H18.414ZM8.778 20.274V21.5773L9.042 21.5049V20.274H8.778ZM9.9 20.274L9.834 20.4188V21.8669L10.164 21.7945L10.296 21.5049H10.494V20.7084H10.362L10.296 20.3464L9.9 20.274ZM11.154 20.274V21.4325L11.352 21.5773L11.484 21.2877V20.4188L11.418 20.274H11.154ZM19.206 20.274V21.5049H19.47V21.7221L19.668 21.8669H19.932L20.13 21.5773V21.2877H20.262L20.328 21.5049L20.592 21.5773L20.79 21.3601V20.3464L20.46 20.274L20.394 20.5636L20.13 20.636L19.932 20.8532V20.4912L19.8 20.4188L19.998 20.3464L19.932 20.274H19.206ZM21.648 20.274L21.582 20.4188V21.2877L21.384 21.3601V21.7221H21.648V21.8669L22.11 21.9393L22.242 21.7221V21.3601L22.044 21.5049V20.3464L21.648 20.274ZM22.902 20.274L22.836 20.3464L22.902 21.5049H23.1L23.166 21.3601V20.4188L23.1 20.274H22.902ZM7.788 21.7221L7.458 22.0117L7.194 22.4462L6.864 22.8082L6.534 23.1703L6.138 23.5323L5.874 23.9667L5.742 24.3288L5.544 24.4012L5.148 25.1977L4.818 26.2113L4.62 25.8493H4.422L4.488 26.5734L4.422 27.0078H4.488L4.554 27.7319L4.752 28.3112L5.016 29.2524L4.884 29.9765L4.752 30.1213L4.95 30.1937L5.082 30.1213L5.148 30.2661L5.544 30.1937L5.61 30.411H5.742L5.676 30.1213H5.544V28.0215L5.874 27.225L6.138 26.7906L6.468 26.3562L6.6 26.2838V25.9941L6.864 25.8493L6.93 25.6321H7.062L7.392 25.0528V24.908H7.524V24.6184L7.656 24.546L7.788 23.6047L7.854 21.7221H7.788ZM9.636 24.0391L9.57 24.9804H9.438L9.24 25.4149L8.91 25.6321V25.7769L8.58 25.9217L8.184 26.1389L8.118 26.2838L7.524 26.6458V26.7906L6.93 26.7182V26.863L6.732 26.9354L6.666 27.5871L6.798 27.7319L6.534 28.0939L6.336 28.8904V30.6282L5.94 30.7006L6.138 31.0626L6.402 31.135V31.2798L6.666 31.4971H6.864V31.6419L7.326 31.9315L7.854 32.0039L7.92 31.8591L7.854 31.5695L7.986 31.135L7.854 30.7006H7.722V30.2661L7.92 30.3386L7.854 30.1213H7.656V29.4697H7.59V28.818H7.92V29.3249L7.854 29.6145L7.92 29.7593H8.118L8.052 29.3249H8.316L8.25 29.0352H8.052L8.118 28.818L8.25 28.6732H8.118L8.184 28.3836L8.382 28.3112L8.448 27.7319L9.108 27.1526V27.0078L9.438 26.863L9.504 26.7182L9.768 26.6458L10.032 26.7182L10.23 26.6458V26.4286L9.9 26.501V26.2838H10.098V26.1389L10.626 26.0665V26.2113L10.89 26.1389V25.9941L11.55 25.8493L11.286 25.7769V25.4149L10.956 25.3425L10.824 25.7045L10.692 25.5597H10.824V25.4149L10.428 25.4873V25.8493H10.296V26.0665L9.966 25.9941L10.098 25.6321V25.0528L9.9 24.4012L9.702 24.0391H9.636ZM29.106 27.8043L28.71 28.1663L28.38 28.6008L28.116 28.8904V29.1076H27.984L27.918 29.3249L28.182 29.2524L28.842 28.5284V28.3836H28.974L29.04 28.1663L29.238 28.0215V27.8043H29.106ZM16.038 23.4599L15.708 23.6047L15.774 23.8943L15.312 23.9667L14.916 24.4736L14.85 24.8356L14.388 25.0528V25.1977L14.058 25.2701L13.794 25.4873L13.464 25.6321V25.7769L13.068 25.9217L12.606 26.1389L12.408 26.3562L11.946 26.6458V26.7906L11.616 26.9354L10.956 27.5871L10.626 27.9491L10.098 28.6732L10.032 28.9628H9.768L9.702 28.818L9.438 29.18L9.306 29.3973L9.042 29.2524L9.174 29.5421L9.504 29.6869L9.57 29.9765H9.438L9.24 30.773V30.9902L8.91 31.0626L8.976 32.5832L9.174 32.6556L9.438 33.8865H9.57L9.636 34.2485H9.768L9.834 34.683L10.032 34.7554V34.9002H10.164V35.1174L10.758 35.5519L10.956 35.4795L10.824 35.1898H10.692L10.56 34.7554V34.5382V34.3933L10.89 34.4658V34.1761L11.088 34.1037V33.8141H11.286V33.5969H11.418L11.484 34.0313L11.748 34.6106L12.21 35.045H12.342L12.276 34.7554H12.144L11.946 33.8865L11.88 33.7417H12.144V33.4521L12.54 33.5245L12.474 33.8865L12.738 33.8141L12.804 33.6693L13.068 33.7417L13.2 34.1037L13.53 34.4658L13.926 34.683L14.256 34.7554H14.982L15.708 34.5382L16.038 34.3933V34.2485L16.302 34.1037L16.632 33.8865V33.7417L16.962 33.5969L17.424 33.0176L17.49 32.728L17.754 32.5832L18.018 32.2211L18.348 31.4971L18.744 30.6282V30.4834H18.876L19.14 29.6869L19.602 28.8904V28.6008L20.13 28.5284V28.3836H20.328V28.2387L20.724 28.3112V28.0215H20.526V27.6595L19.998 27.5147L19.14 27.5871L18.81 27.6595V27.8043L18.15 28.0215L17.886 28.1663V28.3112L17.556 28.456L17.226 28.6732L17.16 28.8904H17.688L18.348 28.6008V28.7456H18.48V29.18H18.348L18.15 29.6869L18.018 29.9765L17.556 30.0489L17.424 30.1213L17.358 30.9178L17.292 31.2798L17.49 31.3523L17.094 32.1487L16.962 32.2935V32.5108L16.698 32.6556L16.368 33.0176L16.17 33.2348L15.84 33.3796V33.5245L15.246 33.7417L14.784 33.8141H14.19L13.992 33.6693V33.3072L14.454 33.2348L14.652 33.0176L14.586 32.6556L14.454 32.3659L14.256 32.2935H13.662L13.332 32.5832L13.2 32.6556L13.068 33.1624L12.738 33.0176V33.3072H12.276L12.078 33.2348V32.6556L11.946 32.5832L12.144 32.0039V31.8591H12.276L12.342 31.4971L12.672 31.3523L13.068 30.9902L13.662 30.773V30.6282L14.19 30.5558H15.18L15.378 30.773H15.51V31.2798L15.774 31.5695L16.104 31.4971L16.236 31.4247L16.302 31.2074V30.6282L16.104 30.1213L15.774 29.7593L15.18 29.3973V28.9628L15.444 28.2387V28.0215L15.048 28.1663V28.3112L14.388 28.5284L13.926 28.818L13.068 29.2524V29.3973L12.672 29.5421L12.408 29.7593V29.9041L12.144 30.0489L11.88 30.411L11.748 30.4834V30.7006H11.616L11.352 31.3523L11.22 31.7143L11.154 32.2211V33.5245L11.022 33.6693V33.8865L10.692 33.9589V34.2485H10.56V34.1037L10.164 34.0313V31.3523L10.362 30.7006L10.692 29.9041L10.89 29.6145V29.3973L11.154 29.2524L11.286 28.9628L11.484 28.8904L11.748 28.6008L11.946 28.6732H12.474L12.804 28.5284V28.3112L12.474 28.5284V28.3112L12.738 28.2387V28.0939H12.936V28.2387H13.134V28.0939H13.002L13.068 27.5871L13.86 27.1526V27.0078L14.256 26.863L14.388 26.7906V26.6458L14.718 26.501L15.114 26.1389L15.378 25.7045V25.4873L15.576 25.4149L15.906 24.4736L16.104 23.6771V23.5323L16.236 23.4599H16.038ZM13.002 34.8278L12.738 34.9726V35.1174L12.936 35.3346H12.738L12.804 35.6967L13.2 35.9139H13.596L13.86 35.6967H14.19L14.124 36.1311H14.388V35.9863H14.256V35.8415L14.652 35.6967V35.5519H14.52V35.407H13.992V35.2622H14.124L14.058 34.9726H13.86L13.926 35.2622H13.794L13.728 35.045L13.2 34.9726V34.8278H13.002Z" fill="#002B11"/>
<path d="M29.5682 16.4363H30.1622L30.4922 16.5811L30.8222 16.9431L30.8882 17.0155V18.0292L30.5582 18.3189L30.2282 18.2465L30.1622 17.6672H29.7002L29.5022 18.0292L29.5682 18.4637L29.9642 18.7533V18.8981H30.6242L30.6902 18.6809L31.0862 18.4637L31.3502 18.1016L31.8782 17.9568L31.9442 17.5948H32.1422L32.2082 17.7396L32.4722 17.6672V17.8844L32.3402 17.9568L32.6702 18.2465L32.8022 18.6809L32.8682 18.8257L32.4722 18.8981V19.0429H32.6042L32.6702 19.2602H32.5382V19.405H32.8682L32.7362 19.4774L32.8022 20.0566H33.0002V20.9979H32.9342V20.129L32.5382 20.0566L32.2742 19.9118V19.767L31.7462 19.8394V19.6946L31.3502 19.9118L31.2842 20.2739L30.6902 20.4187H30.1622V20.5635L29.5022 20.7807L29.4362 21.0703L29.3702 21.1427H28.9742L28.8422 20.9979V20.7807H28.7102L28.3142 20.0566V19.9118L28.5122 19.8394V18.9705L28.3802 18.8981V19.0429H28.1822L28.2482 19.2602L28.1162 19.3326V18.5361L28.2482 18.0292L28.4462 17.5224L28.6442 17.0879L29.3702 16.5087L29.5682 16.4363Z" fill="#002B11"/>
<path d="M2.37606 10.2817L2.83806 10.3541V10.499L2.50806 10.5714L2.57406 15.133V16.7984L2.50806 18.3189L2.70606 18.3913H2.57406V23.677L2.64006 24.1839L2.90406 24.2563L3.03606 24.1839L2.97006 24.5459H3.10206L3.16806 24.4011H3.36606V24.2563H3.49806L3.43206 24.6907L3.30006 24.7631L2.83806 24.6183L2.77206 24.3287H2.64006L2.57406 24.5459L2.50806 25.4148H2.64006V25.5596H2.50806L2.57406 28.9628V33.0175L2.44206 33.3796H2.31006L2.37606 10.2817Z" fill="#002B11"/>
<path d="M7.45801 1.08618H7.59001V1.3034L7.92001 1.37581V1.73785L8.25001 1.81025L8.31601 1.95507H8.11801V2.17229H8.25001V2.53432L8.05201 2.67914H7.85401V2.96877H8.18401L8.11801 3.18599H8.25001V3.04117L8.44801 3.11358L15.774 3.18599V3.25839H8.25001V13.1782H8.18401V3.40321H8.05201V4.27209L7.78801 4.12728L7.59001 3.91006H7.78801V3.69284H7.98601V3.40321L7.52401 3.25839L7.65601 2.82395L7.59001 2.75154L7.39201 2.82395V2.67914H7.19401L7.32601 2.38951L7.19401 2.02747H7.39201V2.3171H7.52401L7.45801 2.02747L7.52401 1.59303L7.78801 1.66544V1.44822H7.39201L7.45801 1.59303L7.19401 1.52062V1.3034L7.06201 1.231L7.45801 1.3034V1.08618Z" fill="#002B11"/>
<path d="M27.9181 10.7163L27.9841 10.8611L27.9181 11.0783L28.3141 11.0059L28.5121 11.2232L28.3801 11.5128L28.1821 11.4404V11.5852L27.9181 11.6576L27.8521 12.3093H27.9841V12.5265L28.3141 12.5989L28.5781 12.4541L29.0401 12.3817V11.8024L29.3041 11.8748V12.092L29.5681 12.0196L29.5021 12.2369H29.3701V12.6713H29.5681V12.1644H29.7001V12.8885L29.3701 13.323L28.9741 13.4678H28.5121L28.0501 13.1781L27.7201 12.8885L27.5221 12.5265L27.4561 12.2369V11.368L27.5881 10.8611L27.9181 10.7163Z" fill="#002B11"/>
<path d="M17.7541 35.1174H19.6021L19.6681 35.4795L19.5361 35.6243H19.3381V35.7691L19.8661 35.8415L19.9981 36.1311H20.2621V36.2759H20.1301V36.4208L20.3941 36.4932L20.5261 36.638V36.9276L19.7341 37H19.0081L19.1401 36.8552H18.2821V36.7104L19.0741 36.638L19.2721 36.7104L19.3381 36.4932L19.7341 36.638L19.8001 36.1311H19.6681L19.6021 36.4208L19.4701 36.3484L19.5361 36.0587L19.0741 35.9139L18.8101 35.8415V35.9863L19.0741 36.0587L18.4141 36.1311L18.3481 35.9139H18.6121V35.6243L18.9421 35.5519L17.7541 35.4795V35.6243H17.6221L17.7541 35.1174Z" fill="#002B11"/>
<path d="M2.11182 4.05469L2.30982 4.12709L2.24382 32.8003H2.17782L2.11182 4.05469Z" fill="#002B11"/>
<path d="M32.8681 17.0156L33.0001 17.1604V20.0567H32.8021L32.7361 19.9119V19.4775L32.5381 19.4051L32.6041 19.043H32.4721V18.8982L32.8021 18.7534L32.7361 18.4638L32.6041 18.3914V18.2465L32.2741 17.8845H32.4721V17.6673L32.0761 17.8121L32.1421 17.5949H31.9441L31.8781 17.9569L32.0101 18.0293H31.8121L31.7461 17.8845V17.2328H31.8781V17.3777H32.4061L32.6041 17.2328V17.3777L32.8681 17.4501L32.8021 17.088L32.8681 17.0156Z" fill="#002B11"/>
<path d="M14.652 18.3191H14.718V21.2878L14.256 21.2154V21.0706H14.058L13.926 20.4189L13.728 20.2017L13.794 19.912L13.926 19.7672H14.322L14.388 20.1293H14.256L14.322 20.4913H14.52L14.586 18.3915L14.652 18.3191Z" fill="#002B11"/>
<path d="M28.6439 9.26807H28.9739V9.41288H29.2379V9.55769H29.0399V9.70251L29.6339 9.55769L29.6999 9.84732H29.5679L29.6999 10.4266L29.6339 10.9334L29.5019 11.0058L29.3039 10.4266V9.99214L29.0399 10.0645L28.9079 10.2818L28.6439 10.2094L28.5779 10.137L28.6439 9.26807Z" fill="#002B11"/>
<path d="M2.44198 4.41675H2.50798L2.57398 4.85119V9.19561L2.50798 10.2093H2.37598V4.48916L2.44198 4.41675Z" fill="#002B11"/>
<path d="M6.40194 17.0881H6.59994L6.66594 17.3778L6.79794 17.4502V17.3054L7.39194 17.2329L7.52394 17.3054V17.6674L7.32594 18.3191L7.19394 18.5363V18.3191H6.86394L6.79794 18.0294H6.66594V17.8846L7.06194 17.957L6.99594 17.8122H6.59994V17.6674H6.40194L6.33594 17.1605L6.40194 17.0881Z" fill="#002B11"/>
<path d="M21.8461 11.8748L22.3081 11.9472L22.5721 12.5264L22.4401 12.6712H22.1101V12.3092L21.9781 12.2368L21.9121 12.5264L21.7801 13.1057L21.9121 13.1781L21.8461 13.5401L21.5821 13.6125V13.3953L21.2521 13.6125H21.1201V13.4677L21.3841 13.3229L21.5821 12.2368H21.7141L21.7801 11.9472L21.8461 11.8748Z" fill="#002B11"/>
<path d="M17.7542 11.0059L17.9522 11.2231L18.0182 11.5127H17.8862L17.8202 11.6575L17.6882 11.7299H17.3582L17.4242 11.8747L17.2922 11.9472H14.7842V11.8023L16.1702 11.7299V11.6575H16.5002L16.4342 11.2955H16.0382V11.1507L16.3682 11.0783L16.5662 11.1507L16.6982 11.5851L17.0282 11.7299V11.5127L17.2922 11.5851L17.4242 11.2955L17.4902 11.4403L17.6882 11.2955L17.7542 11.0059Z" fill="#002B11"/>
<path d="M31.6139 19.6948H31.7459V19.8396L32.2739 19.6948L32.5379 20.0569L32.0759 20.1293L31.8779 20.0569L31.9439 20.2741L31.8779 20.4913H31.7459V21.2154L31.8119 21.4326H31.3499L31.2839 21.7222V21.0706L31.5479 20.2017L31.2839 20.2741V19.912L31.6139 19.6948Z" fill="#002B11"/>
<path d="M23.892 16.9434L24.024 17.0882L23.958 17.8847H24.288V19.4052L24.09 19.3328V18.3191L23.628 18.3915V17.5226L23.496 17.4502V17.3054L23.232 17.4502L23.166 17.3054L23.43 17.1606L23.628 17.233L23.892 17.0882V16.9434Z" fill="#002B11"/>
<path d="M20.328 23.7495L20.592 23.8219L20.526 24.1115L20.46 24.3288H20.79L20.988 24.4012L21.252 24.4736L21.318 24.6908L21.45 24.7632V24.908H19.668V24.7632L20.064 24.6908H20.658L19.998 24.6184V24.4736H20.196L20.262 24.184L20.328 24.0391H20.196V23.8219L20.328 23.7495Z" fill="#002B11"/>
<path d="M13.0018 34.8279H13.1998V34.9727L13.7278 35.0451L13.7938 35.2623H13.9258L13.8598 34.9727H14.0578L14.1238 35.2623H13.9918V35.4071H14.5198V35.552H14.6518L14.5858 35.7692L14.2558 35.8416V35.9864H14.3878V36.1312H14.1238L14.1898 35.6968L13.3978 35.4795L13.1998 35.2623L13.0678 35.3347L12.7378 35.1175V34.9727L13.0018 34.8279Z" fill="#002B11"/>
<path d="M28.9738 11.4404L29.4358 11.5128L29.6998 12.0197V12.1645H29.5678V12.6713H29.3698V12.2369H29.5018L29.4358 12.0921H29.3038L29.2378 11.8749H29.1058V12.3817L29.0398 12.4541H28.5778L28.4458 12.1645H28.7098V12.0197L28.5118 11.9473H28.6438V11.8025L28.9738 11.4404Z" fill="#002B11"/>
<path d="M13.5299 12.8162H13.9259V12.961H14.0579V13.1058L14.1899 13.1782V13.323L14.5859 13.2506V13.3954H14.7179L14.7839 13.6126H14.5859V13.4678L14.0579 13.685L13.9919 13.9023H13.7939L13.7279 13.7575H13.4639V12.8886L13.5299 12.8162Z" fill="#002B11"/>
<path d="M1.6499 2.3894H2.0459L2.2439 2.67903L2.3099 3.18588L2.5739 3.04107L2.7059 3.18588H2.5079V3.3307L2.7059 3.4031L2.5079 3.47551V3.90995H2.1779V3.69273H2.0459L1.9139 3.04107L1.6499 2.53422V2.3894Z" fill="#002B11"/>
<path d="M7.39217 29.2524H7.52417L7.65617 29.4697V30.1213L7.92017 30.1937V30.3385L7.72217 30.2661V30.7006H7.85417L7.98617 31.2798L7.78817 31.5695L7.65617 31.4247L7.45817 30.6282L7.32617 30.1213V29.6145L7.39217 29.2524Z" fill="#002B11"/>
<path d="M18.2161 12.7437L18.4801 12.8161V13.4677L18.1501 13.6125L17.8201 13.6849V13.8298L17.4241 13.6849L17.2261 13.4677V13.3229L17.5561 13.1781H17.9521V13.0333L18.1501 12.9609L18.2161 12.7437Z" fill="#002B11"/>
<path d="M19.5362 20.2739H19.9322L19.9982 20.4187H19.8002L19.9322 20.4911V20.8532L20.1962 20.5636L20.4602 20.636L20.3942 20.8532H20.2622L19.9982 21.1428H19.8662L19.9322 21.5048L19.8662 21.6497H19.7342L19.6682 21.8669L19.4702 21.7221L19.5362 20.2739Z" fill="#002B11"/>
<path d="M28.1821 11.4404L28.4461 11.5128L28.5121 12.0197H28.7101V12.1645H28.4461L28.5781 12.5265L28.2481 12.6713L27.9841 12.5265V12.3093H27.8521L27.7861 12.0197L27.9181 11.5852H28.1821V11.4404Z" fill="#002B11"/>
<path d="M15.1138 19.6948L15.1798 19.912L15.4438 20.0569L15.3778 20.2017H15.5758V19.912L15.9058 19.9845L15.7078 20.0569L15.7738 20.2741L15.9718 20.4189L15.8398 20.4913L15.7738 20.7809H15.9058L15.8398 20.9982L15.5098 20.7809V20.9257H15.1138V19.6948Z" fill="#002B11"/>
<path d="M13.398 20.4912H13.464L13.53 20.9257V21.5049L13.662 21.5773L13.596 21.7221L13.398 21.7945H12.342V21.5773H12.21V21.2877L12.408 21.3601V21.5773L12.606 21.4325L12.87 21.5049L13.266 21.6497L13.134 21.0705L13.2 20.7084H13.398V20.4912Z" fill="#002B11"/>
<path d="M30.162 28.4561L30.492 28.6009L30.624 28.7457L30.558 29.1077L30.162 29.7594L29.832 29.4698L29.964 29.3249H29.766L29.832 29.1077H29.964V28.8905L29.7 28.9629L29.634 28.8181H29.964L30.03 28.5285L30.162 28.4561Z" fill="#002B11"/>
<path d="M27.1918 29.542L27.7858 29.6144V29.7592L27.2578 29.9764L27.1918 30.1937H27.3238V30.3385L27.4558 30.1937L27.5218 30.0488L27.7858 30.3385V30.4833H27.5218L27.4558 30.6281L27.6538 30.7005L27.5878 30.8453L27.3238 30.7729V30.9177H27.1918V31.0625H27.0598V30.7729H27.1918V30.6281H27.3238V30.4833L26.9938 30.5557L26.8618 30.1212L27.0598 29.904V29.6868H27.1918V29.542Z" fill="#002B11"/>
<path d="M26.9281 11.73H27.0601V12.092L27.2581 12.5989V12.8161H27.4561L27.5881 13.2505L27.3901 13.4677H27.2581V13.1781H27.0601V12.7437L27.1261 12.5989L26.9281 12.5265L26.7961 12.6713V12.4541L26.4661 12.5265V12.6713H26.3341L26.2681 12.4541L26.5981 12.2368H26.7301L26.7961 11.8024L26.9281 11.73Z" fill="#002B11"/>
<path d="M28.0498 10.2095H28.5118L28.6438 10.4267V10.9335L28.5118 11.2232L28.4458 11.0784H27.9178V10.7887L27.6538 10.8611V10.7163H27.8518L27.9178 10.3543L28.0498 10.2095Z" fill="#002B11"/>
<path d="M18.0181 24.908L18.3481 24.9804L18.4141 25.1976L17.8201 25.3424L17.2261 25.9217L17.0941 26.1389L16.8301 25.8493L16.8961 25.4872H17.0941L17.2261 25.27L17.4241 25.1976L17.4901 25.0528L18.0181 24.908Z" fill="#002B11"/>
<path d="M13.0019 27.5872L13.0679 27.8044L13.0019 28.094H13.1339V28.2388H12.9359V28.094H12.7379L12.6719 28.3112H12.4739V28.5284L12.8699 28.3112L12.7379 28.6009L12.2759 28.6733H11.8799V28.3836L12.6719 27.732L13.0019 27.5872Z" fill="#002B11"/>
<path d="M16.1042 18.4639H16.5002L16.6982 18.6811V19.55L16.5002 19.7672L16.3022 19.6948H16.4342V18.9707L16.1042 18.8983L15.9722 18.9707L15.5762 18.8259L15.7742 18.5363L16.0382 18.6087L16.1042 18.4639Z" fill="#002B11"/>
<path d="M11.8799 32.6555L12.0779 32.7279V33.2348L12.6059 33.3072H12.7379V33.0176L13.0679 33.1624L13.0019 33.6692H12.8039L12.7379 33.814L12.4739 33.8864L12.5399 33.5244L12.1439 33.452V33.7416H11.8799V32.6555Z" fill="#002B11"/>
<path d="M7.52393 14.6987H7.91993L7.98593 14.7711V15.4952L7.78793 16.3641H7.58993L7.65593 16.0021L7.72193 15.7848H7.58993L7.65593 15.4228L7.72193 15.278L7.52393 15.3504V14.916V14.6987Z" fill="#002B11"/>
<path d="M8.24976 27.8042H8.38176L8.44776 28.0214L8.31576 28.3835H8.18376L8.11776 28.6731L8.24976 28.7455L8.11776 28.8903L8.05176 29.0351H8.24976L8.31576 29.3247H8.05176L8.11776 29.7592H7.91976L7.85376 29.4696L7.91976 28.9627V28.8179L7.65576 28.7455L7.98576 28.0938L8.24976 27.8042Z" fill="#002B11"/>
<path d="M15.1141 17.0881H15.1801L15.1141 17.595L15.1801 17.6674L15.5101 17.7398V17.4502L15.9061 17.5226V17.6674L15.7741 17.8122L15.6421 18.0294V18.2466L14.9161 18.1742L14.8501 17.8122L14.9161 17.5226H15.0481L15.1141 17.0881Z" fill="#002B11"/>
<path d="M22.5719 1.52051L22.9019 1.59291L23.0339 1.66532V1.81014L23.4959 1.88254L23.6279 2.02736L23.5619 2.17217L23.6939 2.24458L23.2979 2.38939L23.0339 2.31699L22.9679 2.17217L22.7039 2.24458V1.88254H22.5059L22.5719 1.52051Z" fill="#002B11"/>
<path d="M17.754 29.9766L18.084 30.049L18.018 30.2662H17.886L17.754 30.9179L17.622 31.2799H17.292L17.424 30.1214L17.754 29.9766Z" fill="#002B11"/>
<path d="M15.2458 12.2368H16.3018L16.2358 12.5989H15.3118L15.1138 12.6713L15.0478 12.8885L14.7178 12.7437L14.9158 12.3816L15.2458 12.2368Z" fill="#002B11"/>
<path d="M26.8618 10.2095H27.1918L26.9938 11.0784V11.6576L26.7958 11.73L26.7298 11.6576V11.006L26.5978 10.9335H26.8618L26.7298 10.6439H26.4658L26.5318 10.3543L26.8618 10.2095Z" fill="#002B11"/>
<path d="M26.994 27.2974L27.126 27.3698L27.06 27.4422V27.8766L27.192 28.0214H27.06V28.2387H27.39L27.258 28.6731L26.994 28.6007V29.2524L26.862 29.1799V28.6007L26.73 28.2387V27.587L26.994 27.2974Z" fill="#002B11"/>
<path d="M31.2179 26.0667H31.4819L31.5479 26.2839L31.7459 26.4287L31.6799 26.6459H31.4159L31.2179 27.0803H31.0859V27.2252L30.7559 27.1528L30.8219 27.0079L31.0859 26.9355V26.7907L30.6899 26.9355V26.7907H30.8219V26.6459H31.0859L31.0199 26.2839L31.2179 26.0667Z" fill="#002B11"/>
<path d="M11.8799 16.6536H11.9459L12.0119 17.1604L12.0779 17.45H11.9459L11.8799 17.8121L11.6159 17.7397V17.5224H11.4839V17.3776H11.3519L11.4179 17.6673L10.8239 17.5949L10.6919 17.3052H11.0879L11.2859 17.45V17.2328H11.6159L11.7479 17.0156H11.8799V16.6536Z" fill="#002B11"/>
<path d="M29.3699 23.1702H29.5019L29.6999 23.8942H29.8319V24.1839L29.5019 24.1115L29.6339 24.0391L29.5679 23.8942H29.2379L29.3039 23.677L28.9079 23.6046L28.8419 23.8218L28.6439 23.8942L28.3799 23.3874L29.1719 23.4598V23.2426L29.3699 23.1702Z" fill="#002B11"/>
<path d="M13.1998 35.1899L13.3978 35.4072L13.9258 35.552L13.5958 35.914H13.1998L12.7378 35.6244V35.3348L13.1998 35.1899Z" fill="#002B11"/>
<path d="M15.6419 6.5166H16.1699L16.2359 6.66142L15.9059 6.95104L16.1039 7.09586L15.7739 7.31308L15.6419 7.60271H15.5099V7.31308H15.3779L15.4439 6.87864L15.6419 6.5166Z" fill="#002B11"/>
<path d="M24.1558 4.34448L24.7498 4.41689H24.9478V4.77892L25.2118 4.99615L25.0798 5.43059L24.6838 5.06855L24.5518 4.85133L24.1558 4.63411V4.34448Z" fill="#002B11"/>
<path d="M23.6942 32.2935H23.9582L23.8922 32.5831L23.6282 33.0899L23.2982 33.3072L23.0342 33.3796L23.1002 33.0175L23.3642 32.5107L23.6942 32.2935Z" fill="#002B11"/>
<path d="M17.0939 2.96875H17.4239L17.6219 3.04116L17.7539 3.40319L17.6879 3.54801L17.8199 3.62041L17.0279 3.54801L16.8959 3.4756H16.5659V3.33079L16.9619 3.25838V3.04116L17.0939 2.96875Z" fill="#002B11"/>
<path d="M13.7279 13.6848L13.7939 13.902L14.1239 13.7572L14.1899 14.1193H14.0579V14.2641H14.1899V14.7709H14.0579V14.6261L13.7279 14.5537L13.5299 14.1917L13.4639 13.7572L13.7279 13.6848Z" fill="#002B11"/>
<path d="M22.5058 2.46191L22.8358 2.53432V2.75154L23.0338 2.82395L22.9678 3.18598H22.8358V2.96876L22.6378 3.04117V3.3308H22.9678L22.9018 3.47561H22.4398L22.1758 3.18598V2.82395L22.6378 2.89636V2.75154H22.5058V2.46191Z" fill="#002B11"/>
<path d="M16.038 23.46L16.236 23.5324H16.104L16.038 23.8944H15.906L15.708 24.184H15.576V24.3288L15.114 24.6909H14.916L14.982 24.3288L15.312 23.9668L15.774 23.8944L15.708 23.6048L16.038 23.46Z" fill="#002B11"/>
<path d="M21.9118 20.3464H22.0438V21.5049L22.2418 21.3601L22.1758 21.867L21.9118 21.9394L21.6478 21.867V21.7222H21.3838V21.2877H21.6478L21.8458 21.5049L21.9118 21.4325V20.3464Z" fill="#002B11"/>
<path d="M17.4902 14.5537H17.8202V14.7709L18.0182 14.6261H18.5462L18.6122 14.9157H18.1502V15.2054L17.6882 15.2778V15.133H17.9522V14.9882H17.5562L17.4902 14.6261V14.5537Z" fill="#002B11"/>
<path d="M24.0239 18.3191H24.0899V19.3328L24.2879 19.4052V19.55L24.0899 19.6224L23.9579 19.7672V19.3328H23.7599L23.6939 19.55L23.5619 19.4776V19.7672L23.2979 19.6948V19.55L23.4299 19.4776V19.3328L23.6279 19.188L23.6939 18.6811L23.9579 18.8259L23.7599 18.8983L23.8259 19.1156L23.9579 19.188V18.3915L24.0239 18.3191Z" fill="#002B11"/>
<path d="M15.0481 20.9255H15.5101L15.7741 21.1428V21.36L15.5101 21.2876L15.3781 21.5048H15.2461V21.722L14.9161 21.7944L14.8501 21.5772H14.9821V21.0704L15.0481 20.9255Z" fill="#002B11"/>
<path d="M9.63591 11.8748H10.0319L10.2959 12.3092V12.5264L9.89991 12.7436V12.454H9.70191L9.63591 12.5988V12.2368L9.50391 12.1644L9.63591 11.8748Z" fill="#002B11"/>
<path d="M5.74179 21.8669L6.00579 21.9394L5.87379 22.229L5.54379 22.591L5.34579 22.6634V22.8806H5.54379V23.0255H5.01579L4.88379 22.8806L5.01579 22.591L5.21379 22.5186L5.54379 22.0842L5.74179 21.8669Z" fill="#002B11"/>
<path d="M24.3538 21.8669L24.5518 21.9394L24.6178 22.8806L24.2878 22.953H24.0898V22.3014H24.3538V21.8669Z" fill="#002B11"/>
<path d="M20.2619 20.7085L20.4599 20.7809V21.4326L20.2619 21.505V21.2878H20.1299L20.0639 21.6498L19.9319 21.867H19.7339V21.6498H19.8659L19.7999 20.9257L19.8659 21.1429L20.1959 20.9981L20.2619 20.7085Z" fill="#002B11"/>
<path d="M10.164 20.3464H10.296L10.362 20.7085H10.494V21.5049H10.296L10.164 21.7946L9.83398 21.867V21.4325L10.098 21.5049L10.164 20.3464Z" fill="#002B11"/>
<path d="M10.9558 25.3425L11.2858 25.4149V25.777L11.5498 25.8494L10.8898 25.9942V26.139L10.6258 26.2114V26.0666L10.3618 26.139L10.4278 25.9218L10.8238 25.7046L10.9558 25.3425Z" fill="#002B11"/>
<path d="M31.416 16.7261L31.482 16.9433L31.746 16.8709V17.1605H32.076L31.944 17.2329L31.878 17.3777V17.2329H31.746L31.812 18.0294L31.746 18.1018H31.416L31.482 17.7398V17.1605L31.416 16.7261Z" fill="#002B11"/>
<path d="M24.486 33.2349L24.816 33.3073L24.75 33.5245H24.552V33.6693H24.42L24.288 33.9589V33.8141L23.892 33.9589V33.8141L23.694 33.8865L23.562 33.7417L24.486 33.2349Z" fill="#002B11"/>
<path d="M15.51 7.67505L15.642 7.96468L16.038 7.89227L15.972 8.03708L15.642 8.10949L15.444 8.68875H15.18L15.114 8.83356L14.916 8.54393L15.246 8.32671L15.378 7.74746L15.51 7.67505Z" fill="#002B11"/>
<path d="M6.93002 26.7183L7.45802 26.7907L7.19402 27.1527H7.06202V27.4423L6.86402 27.6596L6.66602 27.5871L6.73202 26.9355L6.93002 26.8631V26.7183Z" fill="#002B11"/>
<path d="M7.39193 19.5498L7.65593 19.6222V19.8394H7.78793V19.9842L8.11793 20.0567L7.91993 20.1291L7.58993 20.0567V20.3463L7.45793 20.4911H7.25993V20.0567L7.19393 20.1291L7.12793 19.9118H7.25993L7.32593 19.6222L7.39193 19.5498Z" fill="#002B11"/>
<path d="M31.4159 26.5735L31.6799 26.7183L31.4159 27.2251L31.2179 27.8044L30.9539 27.5872L30.8879 27.2976L31.0859 27.2251V27.0803H31.2179L31.2839 26.7907L31.4159 26.5735Z" fill="#002B11"/>
<path d="M10.6918 25.4148H10.8238V25.5596H10.6918L10.7578 25.7768L10.4278 25.9941L10.3618 26.1389H10.0978V26.2837H9.89982V26.5009L10.2298 26.4285V26.6457L9.89982 26.7181L9.56982 26.6457L9.76782 26.2113H9.89982V25.9941L10.2958 26.0665V25.8492H10.4278V25.4872L10.6918 25.4148Z" fill="#002B11"/>
<path d="M24.1558 21.7222L24.6178 21.7946V22.7359H24.5518L24.4858 21.9394L24.3538 21.867V22.3014H24.0898V22.5911H23.9578V22.1566H23.6938V22.0118H24.0238L24.1558 21.7222Z" fill="#002B11"/>
<path d="M24.0898 19.5498H24.2218V20.1291L24.1558 20.6359L24.0238 20.7083L24.0898 20.0567H23.9578L23.8918 20.2739H23.7598V20.1291L23.3638 19.9842L23.6278 19.9118L23.6938 19.6222L24.0238 19.767L24.0898 19.5498Z" fill="#002B11"/>
<path d="M14.5862 11.6575L14.9162 11.7299L14.7842 11.8023V12.816L14.4542 12.6712L14.3882 12.3091H14.5202V11.8023L14.3882 11.7299L14.5862 11.6575Z" fill="#002B11"/>
<path d="M17.622 0L18.15 0.072407L18.018 0.579256L17.886 0.651663V0.506849L17.028 0.434442L16.896 0.362035V0.217221H17.49L17.622 0.289628V0Z" fill="#002B11"/>
<path d="M11.22 33.2349H11.286V33.8141H11.088L11.022 34.1762H10.89L10.824 34.4658L10.56 34.3934V34.5382H10.362L10.23 34.2486V34.0313L10.56 34.1037V34.2486H10.692V33.9589L11.022 33.8865L11.088 33.5969L11.22 33.2349Z" fill="#002B11"/>
<path d="M27.1262 24.4736L27.3902 24.546L27.4562 24.9081H27.3242V25.2701L27.0602 25.3425L26.9282 25.2701V24.546L27.1262 24.4736Z" fill="#002B11"/>
<path d="M8.97616 30.9902H9.24016L9.17416 32.5832H8.97616L8.91016 31.0626L8.97616 30.9902Z" fill="#002B11"/>
<path d="M26.7961 29.6145L26.8621 29.7593L26.7961 29.9041L26.9281 29.7593L26.9941 29.6145L27.1261 29.6869L27.0601 30.0489L26.9281 30.1214V30.411H26.5981L26.2681 30.6282V30.411L26.5981 29.9765L26.7961 29.6145Z" fill="#002B11"/>
<path d="M4.42188 25.8494L4.68587 25.9218L4.81787 26.2838V26.501H4.68587L4.61987 27.7319H4.55387L4.48787 27.0079L4.42188 26.8631L4.48787 26.4286L4.42188 25.8494Z" fill="#002B11"/>
<path d="M29.6341 24.9805H29.7001V25.4873L29.7661 25.9218H29.8981V26.3562H29.7001V26.139H29.5681L29.5021 25.7769L29.3701 25.7045L29.4361 25.1977H29.6341V24.9805Z" fill="#002B11"/>
<path d="M10.2301 13.3953H10.6261L10.7581 13.5401L10.8241 13.9745L10.9561 14.1193L10.8901 14.2641L10.4941 14.1193L10.4281 13.7573H10.0981V13.5401H10.2301V13.3953Z" fill="#002B11"/>
<path d="M22.4399 6.44434H22.5719V6.58915H22.9019V6.73396H23.0339L23.1659 6.58915L23.2979 6.95119L23.7599 6.87878L23.6279 7.02359H23.3639L23.2319 7.31322L22.9019 7.16841L22.7039 6.80637L22.4399 6.51674V6.44434Z" fill="#002B11"/>
<path d="M5.01595 29.3972L5.27995 29.542L5.54395 30.1937L5.14795 30.2661L5.01595 30.1213L4.88395 30.1937L4.75195 30.0489L4.88395 29.9041L5.01595 29.3972Z" fill="#002B11"/>
<path d="M20.3282 27.8042H20.5262V28.0214H20.7242V28.311L20.3282 28.2386V28.3835H20.1302V28.5283H19.8662V28.2386H19.9982L20.1302 27.949H20.3282V27.8042Z" fill="#002B11"/>
<path d="M28.3802 18.8982L28.6442 18.9706H28.5122L28.5782 19.3326V19.8395L28.3142 19.9119V19.7671H28.1822L28.1162 19.3326L28.1822 19.043H28.3802V18.8982Z" fill="#002B11"/>
<path d="M28.314 22.6633L28.71 22.8806V22.6633H28.842V22.953L29.106 23.0978L29.238 23.1702V23.0254H29.436L29.37 23.2426L29.238 23.315L29.172 23.5322L28.776 23.4598L28.842 23.0254L28.578 23.0978L28.38 23.0254L28.314 22.6633Z" fill="#002B11"/>
<path d="M19.3381 19.1155H19.4701V19.4051L19.5361 19.5499L19.8661 19.6223V19.7671L19.0741 20.0568L18.8101 20.1292L18.8761 19.912L19.3381 19.8395L19.1401 19.4775L19.2721 19.1879L19.3381 19.1155Z" fill="#002B11"/>
<path d="M24.6842 9.99219L24.9482 10.0646V10.3542H25.0802L25.1462 10.9335L24.8822 11.1507L24.6842 10.5714L24.6182 10.0646L24.6842 9.99219Z" fill="#002B11"/>
<path d="M9.70199 28.8181L9.76799 28.9629L9.96599 29.0353L9.63599 29.687L9.23999 29.6146L9.04199 29.3974V29.2526L9.30599 29.3974L9.50399 29.0353L9.70199 28.8181Z" fill="#002B11"/>
<path d="M14.4538 13.4678H14.5858V13.6126L14.7178 13.685H14.5858V14.047L14.2558 14.1194V14.2643H14.0578L14.1238 14.047L14.0578 13.7574L13.9258 13.6126L14.4538 13.4678Z" fill="#002B11"/>
<path d="M16.962 9.91968H17.16L17.292 10.0645H17.556L17.622 10.1369V10.9334L17.424 10.7162L17.358 10.4989L17.16 10.4265L17.226 10.3541L16.896 10.1369L16.962 9.91968Z" fill="#002B11"/>
<path d="M26.1359 23.0254H26.5979L26.6639 23.1702H26.4659V23.315L26.9939 23.4598L26.9279 23.7495L26.8619 23.6046L26.3999 23.6771L26.4659 23.3874L26.0039 23.4598V23.0978L26.1359 23.0254Z" fill="#002B11"/>
<path d="M18.4138 19.8396H18.5458V20.274L18.4138 20.4189L18.3478 21.3601H18.2818L18.2158 20.3464H17.8198V20.2016H17.9518V20.0568L18.4138 19.8396Z" fill="#002B11"/>
<path d="M7.59017 15.9294L7.72217 16.0019L7.65617 16.3639H7.78817L7.72217 17.088L7.59017 17.45L7.52417 17.2328L7.59017 17.088L7.32617 17.0155V16.7259L7.39217 16.5811H7.52417V16.0743L7.59017 15.9294Z" fill="#002B11"/>
</g>
<defs>
<clipPath id="clip0_517_664">
<rect width="33" height="37" fill="white"/>
</clipPath>
</defs>
</svg>
